<svg width="170" height="120" viewBox="0 0 120 120" fill="none" xmlns="http://www.w3.org/2000/svg">
<path d="M76.6503 60.5144C76.6503 69.4253 69.4266 76.649 60.5194 76.649C51.6069 76.649 44.3832 69.4253 44.3832 60.5144C44.3832 51.6019 51.6069 44.3783 60.5194 44.3783C69.4266 44.3783 76.6503 51.6019 76.6503 60.5144Z" fill="#F6C833"/>
<path d="M60.5189 38.2506C59.4509 38.2506 58.5828 37.3877 58.5828 36.3197V22.5564C58.5828 21.4884 59.4509 20.6255 60.5189 20.6255C61.587 20.6255 62.4498 21.4884 62.4498 22.5564V36.3197C62.4498 37.3877 61.587 38.2506 60.5189 38.2506Z" fill="#F6C833"/>
<path d="M60.5189 100.406C59.4509 100.406 58.5828 99.5402 58.5828 98.4721V84.712C58.5828 83.6439 59.4509 82.7779 60.5189 82.7779C61.587 82.7779 62.4498 83.6439 62.4498 84.712V98.4721C62.4498 99.5402 61.587 100.406 60.5189 100.406Z" fill="#F6C833"/>
<path d="M76.2607 44.7735C75.5031 44.0159 75.5031 42.79 76.2607 42.0376L85.9886 32.3044C86.7463 31.552 87.9721 31.552 88.7245 32.3044C89.4821 33.062 89.4821 34.2879 88.7245 35.0402L78.9965 44.7735C78.2389 45.5258 77.0183 45.5258 76.2607 44.7735Z" fill="#F6C833"/>
<path d="M32.3096 88.7226C31.5541 87.9671 31.5541 86.7423 32.3096 85.9873L42.0392 76.2572C42.7942 75.5022 44.019 75.5022 44.7745 76.2572C45.5295 77.0127 45.5295 78.237 44.7745 78.9925L35.0444 88.7226C34.2889 89.4781 33.0646 89.4781 32.3096 88.7226Z" fill="#F6C833"/>
<path d="M82.7794 60.5153C82.7794 59.4473 83.6475 58.5791 84.7155 58.5791H98.4736C99.5416 58.5791 100.41 59.4473 100.41 60.5153C100.41 61.5833 99.5416 62.4514 98.4736 62.4514H84.7155C83.6475 62.4514 82.7794 61.5833 82.7794 60.5153Z" fill="#F6C833"/>
<path d="M20.625 60.5153C20.625 59.4473 21.491 58.5791 22.559 58.5791H36.3197C37.3877 58.5791 38.2532 59.4473 38.2532 60.5153C38.2532 61.5833 37.3877 62.4514 36.3197 62.4514H22.559C21.491 62.4514 20.625 61.5833 20.625 60.5153Z" fill="#F6C833"/>
<path d="M76.2607 76.2572C77.0183 75.5022 78.2389 75.5022 78.9965 76.2572L88.7245 85.9873C89.4821 86.7423 89.4821 87.9671 88.7245 88.7226C87.9721 89.4781 86.7463 89.4781 85.9886 88.7226L76.2607 78.9925C75.5031 78.237 75.5031 77.0127 76.2607 76.2572Z" fill="#F6C833"/>
<path d="M32.3096 32.3044C33.0646 31.552 34.2889 31.552 35.0444 32.3044L44.7745 42.0376C45.5295 42.79 45.5295 44.0159 44.7745 44.7735C44.019 45.5258 42.7942 45.5258 42.0392 44.7735L32.3096 35.0402C31.5541 34.2879 31.5541 33.062 32.3096 32.3044Z" fill="#F6C833"/>
</svg>
